<?xml version="1.0" encoding="iso-8859-1"?>
<!-- Generator: Adobe Illustrator 17.1.0, SVG Export Plug-In . SVG Version: 6.00 Build 0)  -->
<!DOCTYPE svg PUBLIC "-//W3C//DTD SVG 1.1//EN" "http://www.w3.org/Graphics/SVG/1.1/DTD/svg11.dtd">
<svg version="1.1" id="Capa_1" xmlns="http://www.w3.org/2000/svg" xmlns:xlink="http://www.w3.org/1999/xlink" x="0px" y="0px"
	 viewBox="0 0 222.796 222.796" style="enable-background:new 0 0 222.796 222.796;" xml:space="preserve">
<path d="M222.796,125.509c0,27.92-22.714,50.635-50.634,50.635h-52.79v-58.718l14.197,14.197c1.464,1.464,3.384,2.197,5.303,2.197
	s3.839-0.732,5.303-2.197c2.929-2.929,2.929-7.678,0-10.606l-27.474-27.474c-2.929-2.929-7.678-2.929-10.606,0l-27.474,27.474
	c-2.929,2.929-2.929,7.678,0,10.606c1.464,1.464,3.384,2.197,5.303,2.197s3.839-0.732,5.303-2.197l15.145-15.145v59.666H38.925
	C17.461,176.144,0,158.682,0,137.219c0-20.394,15.766-37.176,35.75-38.796c2.713-13.326,9.575-25.493,19.737-34.796
	C67.444,52.68,82.962,46.652,99.184,46.652c22.805,0,43.839,12.091,55.458,31.349c5.586-2.058,11.53-3.126,17.519-3.126
	C200.082,74.875,222.796,97.589,222.796,125.509z"/>
<g>
</g>
<g>
</g>
<g>
</g>
<g>
</g>
<g>
</g>
<g>
</g>
<g>
</g>
<g>
</g>
<g>
</g>
<g>
</g>
<g>
</g>
<g>
</g>
<g>
</g>
<g>
</g>
<g>
</g>
</svg>
